<svg width="6" height="4" viewBox="0 0 6 4" fill="none" xmlns="http://www.w3.org/2000/svg">
<path d="M3.35052 0.350651L5.76719 2.76732C5.80052 2.80065 5.82552 2.83676 5.84219 2.87565C5.85885 2.91454 5.86719 2.95621 5.86719 3.00065C5.86719 3.08954 5.83663 3.16732 5.77552 3.23398C5.71441 3.30065 5.63385 3.33398 5.53385 3.33398L0.467187 3.33398C0.367187 3.33398 0.286632 3.30065 0.225521 3.23398C0.16441 3.16732 0.133854 3.08954 0.133854 3.00065C0.133854 2.97843 0.167187 2.90065 0.233854 2.76732L2.65052 0.350651C2.70608 0.295095 2.76163 0.256206 2.81719 0.233984C2.87274 0.211762 2.93385 0.200651 3.00052 0.200651C3.06719 0.200651 3.1283 0.211762 3.18385 0.233984C3.23941 0.256206 3.29497 0.295095 3.35052 0.350651Z" fill="#5F6266"/>
</svg>
