<svg width="6" height="4" viewBox="0 0 6 4" fill="none" xmlns="http://www.w3.org/2000/svg">
<path d="M2.64948 3.6513L0.232813 1.23464C0.199479 1.2013 0.174479 1.16519 0.157813 1.1263C0.141146 1.08741 0.132812 1.04575 0.132812 1.0013C0.132812 0.912413 0.163368 0.834635 0.224479 0.767969C0.28559 0.701302 0.366146 0.667969 0.466146 0.667969H5.53281C5.63281 0.667969 5.71337 0.701302 5.77448 0.767969C5.83559 0.834635 5.86615 0.912413 5.86615 1.0013C5.86615 1.02352 5.83281 1.1013 5.76615 1.23464L3.34948 3.6513C3.29392 3.70686 3.23837 3.74575 3.18281 3.76797C3.12726 3.79019 3.06615 3.8013 2.99948 3.8013C2.93281 3.8013 2.8717 3.79019 2.81615 3.76797C2.76059 3.74575 2.70503 3.70686 2.64948 3.6513Z" fill="#5F6266"/>
</svg>
