<svg width="12" height="15" viewBox="0 0 12 15" fill="none" xmlns="http://www.w3.org/2000/svg">
<path d="M4.66667 2.00033C4.47778 2.00033 4.31944 1.93644 4.19167 1.80866C4.06389 1.68088 4 1.52255 4 1.33366C4 1.14477 4.06389 0.986437 4.19167 0.858659C4.31944 0.730881 4.47778 0.666992 4.66667 0.666992H7.33333C7.52222 0.666992 7.68056 0.730881 7.80833 0.858659C7.93611 0.986437 8 1.14477 8 1.33366C8 1.52255 7.93611 1.68088 7.80833 1.80866C7.68056 1.93644 7.52222 2.00033 7.33333 2.00033H4.66667ZM6 9.33366C6.18889 9.33366 6.34722 9.26977 6.475 9.14199C6.60278 9.01421 6.66667 8.85588 6.66667 8.66699V6.00033C6.66667 5.81144 6.60278 5.6531 6.475 5.52533C6.34722 5.39755 6.18889 5.33366 6 5.33366C5.81111 5.33366 5.65278 5.39755 5.525 5.52533C5.39722 5.6531 5.33333 5.81144 5.33333 6.00033V8.66699C5.33333 8.85588 5.39722 9.01421 5.525 9.14199C5.65278 9.26977 5.81111 9.33366 6 9.33366ZM6 14.667C5.17778 14.667 4.40278 14.5087 3.675 14.192C2.94722 13.8753 2.31111 13.4448 1.76667 12.9003C1.22222 12.3559 0.791667 11.7198 0.475 10.992C0.158333 10.2642 0 9.48921 0 8.66699C0 7.84477 0.158333 7.06977 0.475 6.34199C0.791667 5.61421 1.22222 4.9781 1.76667 4.43366C2.31111 3.88921 2.94722 3.45866 3.675 3.14199C4.40278 2.82533 5.17778 2.66699 6 2.66699C6.68889 2.66699 7.35 2.7781 7.98333 3.00033C8.61667 3.22255 9.21111 3.54477 9.76667 3.96699L10.2333 3.50033C10.3556 3.3781 10.5111 3.31699 10.7 3.31699C10.8889 3.31699 11.0444 3.3781 11.1667 3.50033C11.2889 3.62255 11.35 3.7781 11.35 3.96699C11.35 4.15588 11.2889 4.31144 11.1667 4.43366L10.7 4.90033C11.1222 5.45588 11.4444 6.05033 11.6667 6.68366C11.8889 7.31699 12 7.9781 12 8.66699C12 9.48921 11.8417 10.2642 11.525 10.992C11.2083 11.7198 10.7778 12.3559 10.2333 12.9003C9.68889 13.4448 9.05278 13.8753 8.325 14.192C7.59722 14.5087 6.82222 14.667 6 14.667Z" fill="#7C8086"/>
</svg>
