<svg width="12" height="12" viewBox="0 0 12 12" fill="none" xmlns="http://www.w3.org/2000/svg">
<path d="M5.9807 7.1007L2.0607 11.0207C1.91404 11.1674 1.72737 11.2407 1.5007 11.2407C1.27404 11.2407 1.08737 11.1674 0.940703 11.0207C0.794036 10.874 0.720703 10.6874 0.720703 10.4607C0.720703 10.234 0.794036 10.0474 0.940703 9.9007L4.8607 5.9807L0.940703 2.0607C0.794036 1.91404 0.720703 1.72737 0.720703 1.5007C0.720703 1.27404 0.794036 1.08737 0.940703 0.940703C1.08737 0.794036 1.27404 0.720703 1.5007 0.720703C1.72737 0.720703 1.91404 0.794036 2.0607 0.940703L5.9807 4.8607L9.9007 0.940703C10.0474 0.794036 10.234 0.720703 10.4607 0.720703C10.6874 0.720703 10.874 0.794036 11.0207 0.940703C11.1674 1.08737 11.2407 1.27404 11.2407 1.5007C11.2407 1.72737 11.1674 1.91404 11.0207 2.0607L7.1007 5.9807L11.0207 9.9007C11.1674 10.0474 11.2407 10.234 11.2407 10.4607C11.2407 10.6874 11.1674 10.874 11.0207 11.0207C10.874 11.1674 10.6874 11.2407 10.4607 11.2407C10.234 11.2407 10.0474 11.1674 9.9007 11.0207L5.9807 7.1007Z" fill="#B5B5B5"/>
</svg>
