<svg width="16" height="16" viewBox="0 0 16 16" fill="none" xmlns="http://www.w3.org/2000/svg">
<path d="M6.40039 12.2663C6.03372 12.2663 5.71984 12.1357 5.45872 11.8746C5.19761 11.6135 5.06706 11.2996 5.06706 10.9329V2.93294C5.06706 2.56628 5.19761 2.25239 5.45872 1.99128C5.71984 1.73016 6.03372 1.59961 6.40039 1.59961H12.4004C12.7671 1.59961 13.0809 1.73016 13.3421 1.99128C13.6032 2.25239 13.7337 2.56628 13.7337 2.93294V10.9329C13.7337 11.2996 13.6032 11.6135 13.3421 11.8746C13.0809 12.1357 12.7671 12.2663 12.4004 12.2663H6.40039ZM6.40039 10.9329H12.4004V2.93294H6.40039V10.9329ZM3.73372 14.9329C3.36706 14.9329 3.05317 14.8024 2.79206 14.5413C2.53095 14.2802 2.40039 13.9663 2.40039 13.5996V4.93294C2.40039 4.74405 2.46428 4.58572 2.59206 4.45794C2.71984 4.33016 2.87817 4.26628 3.06706 4.26628C3.25595 4.26628 3.41428 4.33016 3.54206 4.45794C3.66984 4.58572 3.73372 4.74405 3.73372 4.93294V13.5996H10.4004C10.5893 13.5996 10.7476 13.6635 10.8754 13.7913C11.0032 13.9191 11.0671 14.0774 11.0671 14.2663C11.0671 14.4552 11.0032 14.6135 10.8754 14.7413C10.7476 14.8691 10.5893 14.9329 10.4004 14.9329H3.73372Z" fill="#A0A5AD"/>
</svg>
