<svg width="18" height="14" viewBox="0 0 18 14" fill="none" xmlns="http://www.w3.org/2000/svg">
<path d="M9.0013 8.58203L10.2513 9.54036C10.4041 9.66536 10.5707 9.66884 10.7513 9.55078C10.9319 9.43272 10.9874 9.27647 10.918 9.08203L10.418 7.4987L11.8138 6.41536C11.9666 6.29036 12.0082 6.13411 11.9388 5.94661C11.8694 5.75911 11.7374 5.66536 11.543 5.66536H9.91797L9.39713 4.0612C9.32769 3.86675 9.19575 3.76953 9.0013 3.76953C8.80686 3.76953 8.67491 3.86675 8.60547 4.0612L8.08463 5.66536H6.4388C6.24436 5.66536 6.11589 5.75911 6.05339 5.94661C5.99089 6.13411 6.03602 6.29036 6.1888 6.41536L7.54297 7.4987L7.04297 9.10286C6.97352 9.29731 7.02214 9.45356 7.1888 9.57161C7.35547 9.68967 7.52213 9.6862 7.6888 9.5612L9.0013 8.58203ZM2.33464 13.6654C1.8763 13.6654 1.48394 13.5022 1.15755 13.1758C0.831163 12.8494 0.667969 12.457 0.667969 11.9987V9.1862C0.667969 9.03342 0.71658 8.90147 0.813802 8.79036C0.911024 8.67925 1.03602 8.60981 1.1888 8.58203C1.52214 8.47092 1.79644 8.26953 2.01172 7.97786C2.227 7.6862 2.33464 7.35981 2.33464 6.9987C2.33464 6.63759 2.227 6.3112 2.01172 6.01953C1.79644 5.72786 1.52214 5.52648 1.1888 5.41536C1.03602 5.38759 0.911024 5.31814 0.813802 5.20703C0.71658 5.09592 0.667969 4.96398 0.667969 4.8112V1.9987C0.667969 1.54036 0.831163 1.148 1.15755 0.821615C1.48394 0.495226 1.8763 0.332031 2.33464 0.332031H15.668C16.1263 0.332031 16.5187 0.495226 16.8451 0.821615C17.1714 1.148 17.3346 1.54036 17.3346 1.9987V4.8112C17.3346 4.96398 17.286 5.09592 17.1888 5.20703C17.0916 5.31814 16.9666 5.38759 16.8138 5.41536C16.4805 5.52648 16.2062 5.72786 15.9909 6.01953C15.7756 6.3112 15.668 6.63759 15.668 6.9987C15.668 7.35981 15.7756 7.6862 15.9909 7.97786C16.2062 8.26953 16.4805 8.47092 16.8138 8.58203C16.9666 8.60981 17.0916 8.67925 17.1888 8.79036C17.286 8.90147 17.3346 9.03342 17.3346 9.1862V11.9987C17.3346 12.457 17.1714 12.8494 16.8451 13.1758C16.5187 13.5022 16.1263 13.6654 15.668 13.6654H2.33464Z" fill="#0B0B0B"/>
</svg>
