<svg width="18" height="16" viewBox="0 0 18 16" fill="none" xmlns="http://www.w3.org/2000/svg">
<path d="M2.36589 13.8333H5.69922V7.16667H2.36589V13.8333ZM7.36588 13.8333H10.6992V2.16667H7.36588V13.8333ZM12.3659 13.8333H15.6992V8.83333H12.3659V13.8333ZM0.699219 13.8333V7.16667C0.699219 6.70833 0.862413 6.31597 1.1888 5.98958C1.51519 5.66319 1.90755 5.5 2.36589 5.5H5.69922V2.16667C5.69922 1.70833 5.86241 1.31597 6.1888 0.989583C6.51519 0.663194 6.90755 0.5 7.36588 0.5H10.6992C11.1576 0.5 11.5499 0.663194 11.8763 0.989583C12.2027 1.31597 12.3659 1.70833 12.3659 2.16667V7.16667H15.6992C16.1576 7.16667 16.5499 7.32986 16.8763 7.65625C17.2027 7.98264 17.3659 8.375 17.3659 8.83333V13.8333C17.3659 14.2917 17.2027 14.684 16.8763 15.0104C16.5499 15.3368 16.1576 15.5 15.6992 15.5H2.36589C1.90755 15.5 1.51519 15.3368 1.1888 15.0104C0.862413 14.684 0.699219 14.2917 0.699219 13.8333Z" fill="white"/>
</svg>
