<svg width="16" height="16" viewBox="0 0 16 16" fill="none" xmlns="http://www.w3.org/2000/svg">
<path d="M7.99967 9.26699L8.99967 10.0337C9.1219 10.1337 9.25523 10.1364 9.39967 10.042C9.54412 9.94755 9.58856 9.82255 9.53301 9.66699L9.13301 8.40033L10.2497 7.53366C10.3719 7.43366 10.4052 7.30866 10.3497 7.15866C10.2941 7.00866 10.1886 6.93366 10.033 6.93366H8.73301L8.31634 5.65033C8.26079 5.49477 8.15523 5.41699 7.99967 5.41699C7.84412 5.41699 7.73856 5.49477 7.68301 5.65033L7.26634 6.93366H5.94967C5.79412 6.93366 5.69134 7.00866 5.64134 7.15866C5.59134 7.30866 5.62745 7.43366 5.74967 7.53366L6.83301 8.40033L6.43301 9.68366C6.37745 9.83921 6.41634 9.96421 6.54967 10.0587C6.68301 10.1531 6.81634 10.1503 6.94967 10.0503L7.99967 9.26699ZM2.66634 13.3337C2.29967 13.3337 1.98579 13.2031 1.72467 12.942C1.46356 12.6809 1.33301 12.367 1.33301 12.0003V9.75033C1.33301 9.6281 1.3719 9.52255 1.44967 9.43366C1.52745 9.34477 1.62745 9.28921 1.74967 9.26699C2.01634 9.1781 2.23579 9.01699 2.40801 8.78366C2.58023 8.55033 2.66634 8.28921 2.66634 8.00033C2.66634 7.71144 2.58023 7.45033 2.40801 7.21699C2.23579 6.98366 2.01634 6.82255 1.74967 6.73366C1.62745 6.71144 1.52745 6.65588 1.44967 6.56699C1.3719 6.4781 1.33301 6.37255 1.33301 6.25033V4.00033C1.33301 3.63366 1.46356 3.31977 1.72467 3.05866C1.98579 2.79755 2.29967 2.66699 2.66634 2.66699H13.333C13.6997 2.66699 14.0136 2.79755 14.2747 3.05866C14.5358 3.31977 14.6663 3.63366 14.6663 4.00033V6.25033C14.6663 6.37255 14.6275 6.4781 14.5497 6.56699C14.4719 6.65588 14.3719 6.71144 14.2497 6.73366C13.983 6.82255 13.7636 6.98366 13.5913 7.21699C13.4191 7.45033 13.333 7.71144 13.333 8.00033C13.333 8.28921 13.4191 8.55033 13.5913 8.78366C13.7636 9.01699 13.983 9.1781 14.2497 9.26699C14.3719 9.28921 14.4719 9.34477 14.5497 9.43366C14.6275 9.52255 14.6663 9.6281 14.6663 9.75033V12.0003C14.6663 12.367 14.5358 12.6809 14.2747 12.942C14.0136 13.2031 13.6997 13.3337 13.333 13.3337H2.66634ZM2.66634 12.0003H13.333V10.3003C12.9219 10.0559 12.5969 9.73088 12.358 9.32533C12.1191 8.91977 11.9997 8.4781 11.9997 8.00033C11.9997 7.52255 12.1191 7.08088 12.358 6.67533C12.5969 6.26977 12.9219 5.94477 13.333 5.70033V4.00033H2.66634V5.70033C3.07745 5.94477 3.40245 6.26977 3.64134 6.67533C3.88023 7.08088 3.99967 7.52255 3.99967 8.00033C3.99967 8.4781 3.88023 8.91977 3.64134 9.32533C3.40245 9.73088 3.07745 10.0559 2.66634 10.3003V12.0003Z" fill="#FF0420"/>
</svg>
