<svg width="64" height="42" viewBox="0 0 64 42" fill="none" xmlns="http://www.w3.org/2000/svg">
<path fill-rule="evenodd" clip-rule="evenodd" d="M0 1C0 0.447715 0.447715 0 1 0H63C63.5523 0 64 0.447716 64 1V14.0784C64 14.604 63.5257 15 63 15C59.6863 15 57 17.6863 57 21C57 24.3137 59.6863 27 63 27C63.5257 27 64 27.396 64 27.9216V41C64 41.5523 63.5523 42 63 42H1C0.447715 42 0 41.5523 0 41V27.9216C0 27.396 0.474326 27 1 27C4.31371 27 7 24.3137 7 21C7 17.6863 4.31371 15 1 15C0.474326 15 0 14.604 0 14.0784V1Z" fill="white"/>
</svg>
