<svg width="18" height="14" viewBox="0 0 18 14" fill="none" xmlns="http://www.w3.org/2000/svg">
<path d="M9.0013 8.58301L10.2513 9.54134C10.4041 9.66634 10.5707 9.66981 10.7513 9.55176C10.9319 9.4337 10.9874 9.27745 10.918 9.08301L10.418 7.49967L11.8138 6.41634C11.9666 6.29134 12.0082 6.13509 11.9388 5.94759C11.8694 5.76009 11.7374 5.66634 11.543 5.66634H9.91797L9.39713 4.06217C9.32769 3.86773 9.19575 3.77051 9.0013 3.77051C8.80686 3.77051 8.67491 3.86773 8.60547 4.06217L8.08463 5.66634H6.4388C6.24436 5.66634 6.11589 5.76009 6.05339 5.94759C5.99089 6.13509 6.03602 6.29134 6.1888 6.41634L7.54297 7.49967L7.04297 9.10384C6.97352 9.29829 7.02214 9.45454 7.1888 9.57259C7.35547 9.69065 7.52213 9.68717 7.6888 9.56217L9.0013 8.58301ZM2.33464 13.6663C1.8763 13.6663 1.48394 13.5031 1.15755 13.1768C0.831163 12.8504 0.667969 12.458 0.667969 11.9997V9.18717C0.667969 9.0344 0.71658 8.90245 0.813802 8.79134C0.911024 8.68023 1.03602 8.61079 1.1888 8.58301C1.52214 8.4719 1.79644 8.27051 2.01172 7.97884C2.227 7.68717 2.33464 7.36079 2.33464 6.99967C2.33464 6.63856 2.227 6.31217 2.01172 6.02051C1.79644 5.72884 1.52214 5.52745 1.1888 5.41634C1.03602 5.38856 0.911024 5.31912 0.813802 5.20801C0.71658 5.0969 0.667969 4.96495 0.667969 4.81217V1.99967C0.667969 1.54134 0.831163 1.14898 1.15755 0.822591C1.48394 0.496202 1.8763 0.333008 2.33464 0.333008H15.668C16.1263 0.333008 16.5187 0.496202 16.8451 0.822591C17.1714 1.14898 17.3346 1.54134 17.3346 1.99967V4.81217C17.3346 4.96495 17.286 5.0969 17.1888 5.20801C17.0916 5.31912 16.9666 5.38856 16.8138 5.41634C16.4805 5.52745 16.2062 5.72884 15.9909 6.02051C15.7756 6.31217 15.668 6.63856 15.668 6.99967C15.668 7.36079 15.7756 7.68717 15.9909 7.97884C16.2062 8.27051 16.4805 8.4719 16.8138 8.58301C16.9666 8.61079 17.0916 8.68023 17.1888 8.79134C17.286 8.90245 17.3346 9.0344 17.3346 9.18717V11.9997C17.3346 12.458 17.1714 12.8504 16.8451 13.1768C16.5187 13.5031 16.1263 13.6663 15.668 13.6663H2.33464Z" fill="#0B0B0B"/>
</svg>
