<svg width="14" height="12" viewBox="0 0 14 12" fill="none" xmlns="http://www.w3.org/2000/svg">
<path d="M1.66536 11.3337C1.2987 11.3337 0.984809 11.2031 0.723698 10.942C0.462587 10.6809 0.332031 10.367 0.332031 10.0003V7.75033C0.332031 7.6281 0.37092 7.52255 0.448698 7.43366C0.526476 7.34477 0.626476 7.28921 0.748698 7.26699C1.01536 7.1781 1.23481 7.01699 1.40703 6.78366C1.57925 6.55033 1.66536 6.28921 1.66536 6.00033C1.66536 5.71144 1.57925 5.45033 1.40703 5.21699C1.23481 4.98366 1.01536 4.82255 0.748698 4.73366C0.626476 4.71144 0.526476 4.65588 0.448698 4.56699C0.37092 4.4781 0.332031 4.37255 0.332031 4.25033V2.00033C0.332031 1.63366 0.462587 1.31977 0.723698 1.05866C0.984809 0.797548 1.2987 0.666992 1.66536 0.666992H12.332C12.6987 0.666992 13.0126 0.797548 13.2737 1.05866C13.5348 1.31977 13.6654 1.63366 13.6654 2.00033V4.25033C13.6654 4.37255 13.6265 4.4781 13.5487 4.56699C13.4709 4.65588 13.3709 4.71144 13.2487 4.73366C12.982 4.82255 12.7626 4.98366 12.5904 5.21699C12.4181 5.45033 12.332 5.71144 12.332 6.00033C12.332 6.28921 12.4181 6.55033 12.5904 6.78366C12.7626 7.01699 12.982 7.1781 13.2487 7.26699C13.3709 7.28921 13.4709 7.34477 13.5487 7.43366C13.6265 7.52255 13.6654 7.6281 13.6654 7.75033V10.0003C13.6654 10.367 13.5348 10.6809 13.2737 10.942C13.0126 11.2031 12.6987 11.3337 12.332 11.3337H1.66536ZM6.9987 9.33366C7.18759 9.33366 7.34592 9.26977 7.4737 9.14199C7.60148 9.01421 7.66536 8.85588 7.66536 8.66699C7.66536 8.4781 7.60148 8.31977 7.4737 8.19199C7.34592 8.06421 7.18759 8.00033 6.9987 8.00033C6.80981 8.00033 6.65148 8.06421 6.5237 8.19199C6.39592 8.31977 6.33203 8.4781 6.33203 8.66699C6.33203 8.85588 6.39592 9.01421 6.5237 9.14199C6.65148 9.26977 6.80981 9.33366 6.9987 9.33366ZM6.9987 6.66699C7.18759 6.66699 7.34592 6.6031 7.4737 6.47533C7.60148 6.34755 7.66536 6.18921 7.66536 6.00033C7.66536 5.81144 7.60148 5.6531 7.4737 5.52533C7.34592 5.39755 7.18759 5.33366 6.9987 5.33366C6.80981 5.33366 6.65148 5.39755 6.5237 5.52533C6.39592 5.6531 6.33203 5.81144 6.33203 6.00033C6.33203 6.18921 6.39592 6.34755 6.5237 6.47533C6.65148 6.6031 6.80981 6.66699 6.9987 6.66699ZM6.9987 4.00033C7.18759 4.00033 7.34592 3.93644 7.4737 3.80866C7.60148 3.68088 7.66536 3.52255 7.66536 3.33366C7.66536 3.14477 7.60148 2.98644 7.4737 2.85866C7.34592 2.73088 7.18759 2.66699 6.9987 2.66699C6.80981 2.66699 6.65148 2.73088 6.5237 2.85866C6.39592 2.98644 6.33203 3.14477 6.33203 3.33366C6.33203 3.52255 6.39592 3.68088 6.5237 3.80866C6.65148 3.93644 6.80981 4.00033 6.9987 4.00033Z" fill="#7C8086"/>
</svg>
