<svg width="322" height="322" viewBox="0 0 322 322" fill="none" xmlns="http://www.w3.org/2000/svg">
<g filter="url(#filter0_i_860_12080)">
<path d="M192 -62L213.302 -31.8038L241.693 -55.4578L254.454 -20.7771L288 -36.2769L291.35 0.524734L327.764 -5.7645L321.475 30.6501L358.277 34L342.777 67.5461L377.458 80.3067L353.804 108.698L384 130L353.804 151.302L377.458 179.693L342.777 192.454L358.277 226L321.475 229.35L327.764 265.764L291.35 259.475L288 296.277L254.454 280.777L241.693 315.458L213.302 291.804L192 322L170.698 291.804L142.307 315.458L129.546 280.777L96 296.277L92.6501 259.475L56.2355 265.764L62.5247 229.35L25.7231 226L41.2229 192.454L6.54224 179.693L30.1962 151.302L0 130L30.1962 108.698L6.54224 80.3067L41.2229 67.5461L25.7231 34L62.5247 30.6501L56.2355 -5.7645L92.6501 0.524734L96 -36.2769L129.546 -20.7771L142.307 -55.4578L170.698 -31.8038L192 -62Z" fill="#E8041D"/>
</g>
<rect x="130" width="192" height="236" fill="#E8041D"/>
<defs>
<filter id="filter0_i_860_12080" x="0" y="-62" width="384" height="384" filterUnits="userSpaceOnUse" color-interpolation-filters="sRGB">
<feFlood flood-opacity="0" result="BackgroundImageFix"/>
<feBlend mode="normal" in="SourceGraphic" in2="BackgroundImageFix" result="shape"/>
<feColorMatrix in="SourceAlpha" type="matrix" values="0 0 0 0 0 0 0 0 0 0 0 0 0 0 0 0 0 0 127 0" result="hardAlpha"/>
<feOffset dy="8.2963"/>
<feComposite in2="hardAlpha" operator="arithmetic" k2="-1" k3="1"/>
<feColorMatrix type="matrix" values="0 0 0 0 0 0 0 0 0 0 0 0 0 0 0 0 0 0 0.35 0"/>
<feBlend mode="normal" in2="shape" result="effect1_innerShadow_860_12080"/>
</filter>
</defs>
</svg>
